HIERARCHY
ROOT Hips
{
	OFFSET -0.001795 -0.223333 0.028219
	CHANNELS 6 Xposition Yposition Zposition Zrotation Yrotation Xrotation 
	JOINT LeftUpLeg
	{
		OFFSET 0.069520 -0.091406 -0.006815
		CHANNELS 3 Zrotation Yrotation Xrotation
		JOINT LeftLeg
		{
			OFFSET 0.034277 -0.375199 -0.004496
			CHANNELS 3 Zrotation Yrotation Xrotation
			JOINT LeftFoot
			{
				OFFSET -0.013596 -0.397961 -0.043693
				CHANNELS 3 Zrotation Yrotation Xrotation
				JOINT LeftToe
				{
					OFFSET 0.026358 -0.055791 0.119288
					CHANNELS 3 Zrotation Yrotation Xrotation
					End Site
					{
						OFFSET 0.000000 0.000000 0.000000
					}
				}
			}
		}
	}
	JOINT RightUpLeg
	{
		OFFSET -0.067670 -0.090522 -0.004320
		CHANNELS 3 Zrotation Yrotation Xrotation
		JOINT RightLeg
		{
			OFFSET -0.038290 -0.382569 -0.008850
			CHANNELS 3 Zrotation Yrotation Xrotation
			JOINT RightFoot
			{
				OFFSET 0.015774 -0.398415 -0.042312
				CHANNELS 3 Zrotation Yrotation Xrotation
				JOINT RightToe
				{
					OFFSET -0.025372 -0.048144 0.123348
					CHANNELS 3 Zrotation Yrotation Xrotation
					End Site
					{
						OFFSET 0.000000 0.000000 0.000000
					}
				}
			}
		}
	}
	JOINT Spine
	{
		OFFSET -0.002533 0.108963 -0.026696
		CHANNELS 3 Zrotation Yrotation Xrotation
		JOINT Spine1
		{
			OFFSET 0.005487 0.135180 0.001092
			CHANNELS 3 Zrotation Yrotation Xrotation
			JOINT Spine2
			{
				OFFSET 0.001457 0.052922 0.025425
				CHANNELS 3 Zrotation Yrotation Xrotation
				JOINT Neck
				{
					OFFSET -0.002778 0.213870 -0.042857
					CHANNELS 3 Zrotation Yrotation Xrotation
					JOINT Head
					{
						OFFSET 0.005152 0.064970 0.051349
						CHANNELS 3 Zrotation Yrotation Xrotation
						End Site
						{
							OFFSET 0.000000 0.000000 0.000000
						}
					}
				}
				JOINT LeftShoulder
				{
					OFFSET 0.078845 0.121749 -0.034090
					CHANNELS 3 Zrotation Yrotation Xrotation
					JOINT LeftArm
					{
						OFFSET 0.090977 0.030469 -0.008868
						CHANNELS 3 Zrotation Yrotation Xrotation
						JOINT LeftForeArm
						{
							OFFSET 0.259612 -0.012772 -0.027456
							CHANNELS 3 Zrotation Yrotation Xrotation
							JOINT LeftHand
							{
								OFFSET 0.249234 0.008986 -0.001171
								CHANNELS 3 Zrotation Yrotation Xrotation
								End Site
								{
									OFFSET 0.000000 0.000000 0.000000
								}
							}
						}
					}
				}
				JOINT RightShoulder
				{
					OFFSET -0.081759 0.118833 -0.038615
					CHANNELS 3 Zrotation Yrotation Xrotation
					JOINT RightArm
					{
						OFFSET -0.096012 0.032551 -0.009143
						CHANNELS 3 Zrotation Yrotation Xrotation
						JOINT RightForeArm
						{
							OFFSET -0.253742 -0.013329 -0.021401
							CHANNELS 3 Zrotation Yrotation Xrotation
							JOINT RightHand
							{
								OFFSET -0.255298 0.007772 -0.005559
								CHANNELS 3 Zrotation Yrotation Xrotation
								End Site
								{
									OFFSET 0.000000 0.000000 0.000000
								}
							}
						}
					}
				}
			}
		}
	}
}
MOTION
Frames: 10
Frame Time: 0.050000
1.238562 0.876279 0.353089 1.370044 12.166272 0.495833 18.795020 0.221095 -22.627032 -0.069830 -1.538314 23.840420 -8.119994 -12.748421 6.060123 0.000000 0.000000 0.000000 -14.664748 -0.511978 -7.931528 -10.522281 5.030194 43.324911 2.092887 5.157723 0.359470 0.000000 0.000000 0.000000 -4.520149 -0.124813 10.433444 4.173174 -1.603410 -4.107637 3.403587 -7.550727 5.496194 -5.160384 4.027116 -22.818002 0.000000 0.000000 0.000000 -28.513736 1.951276 -3.282574 -39.185416 -6.751152 -2.973835 -6.942559 -33.936677 3.653684 0.000000 0.000000 0.000000 24.490520 -1.569020 -3.967188 45.488607 -6.749679 -6.678217 -10.569292 44.912786 -2.870449 0.000000 0.000000 0.000000 
1.319874 0.866995 0.365009 1.732147 14.582241 -1.407397 14.332171 -0.510657 -24.751337 -1.946393 -2.352861 35.651812 -3.657989 -10.069243 -2.131538 0.000000 0.000000 0.000000 -14.367230 -0.799238 -10.333043 -12.222071 6.048050 52.943573 2.843544 5.654486 2.847237 0.000000 0.000000 0.000000 -4.689507 -0.254655 12.957736 5.420222 -2.162750 -4.086698 3.854244 -9.440406 4.987984 -5.111181 3.903012 -23.572119 0.000000 0.000000 0.000000 -30.699525 -0.025740 -1.825463 -35.329543 -7.603229 -2.642769 -6.965122 -30.573165 3.264699 0.000000 0.000000 0.000000 22.658234 1.469794 -2.245196 45.982717 -4.726362 -5.982248 -7.778175 43.828629 -1.880590 0.000000 0.000000 0.000000 
1.379670 0.879829 0.373145 2.268545 13.686134 -2.070225 9.950338 -0.950662 -22.116824 -1.611576 -2.402280 35.371291 -2.969460 -8.580819 -2.420913 0.000000 0.000000 0.000000 -11.061515 -0.409164 -14.089011 -12.487135 6.921638 59.524399 2.785412 5.426917 2.895037 0.000000 0.000000 0.000000 -4.359703 -0.296558 13.407977 5.874398 -2.674314 -1.758088 3.496318 -8.209479 3.250384 -6.062602 4.459819 -23.883454 0.000000 0.000000 0.000000 -30.849516 -1.844361 -0.930031 -34.217208 -7.431100 -2.427987 -5.294502 -29.012795 2.585799 0.000000 0.000000 0.000000 23.590131 3.919368 -0.828996 44.499095 -1.442829 -4.505469 -6.455425 41.584250 -1.250290 0.000000 0.000000 0.000000 
1.423054 0.907208 0.378978 2.239036 13.714148 -2.099870 7.266861 -0.970045 -17.003942 -0.990405 -2.019199 29.582582 -4.228758 -10.529882 -1.316453 0.000000 0.000000 0.000000 -7.644288 0.127985 -16.438033 -8.232609 3.805666 59.616780 1.318940 3.548486 -0.438832 0.000000 0.000000 0.000000 -3.280295 -0.393893 13.145845 5.832086 -2.577072 -2.344830 2.570686 -9.188682 3.981443 -5.149050 3.913979 -25.085703 0.000000 0.000000 0.000000 -29.899989 -2.347316 -0.229632 -35.376884 -7.289071 -2.660106 -4.606372 -29.792315 2.535727 0.000000 0.000000 0.000000 23.577108 4.280929 -0.804603 43.566933 1.624837 -3.338348 -2.359330 39.881141 0.165457 0.000000 0.000000 0.000000 
1.455748 0.933357 0.383110 1.919171 13.685834 -0.429534 5.744459 -0.844318 -12.796928 -1.020640 -1.033554 19.644780 -5.866542 -10.779342 2.412624 0.000000 0.000000 0.000000 -2.842430 1.014082 -18.330792 -2.143646 -0.315738 52.450062 -1.731357 -1.857859 -7.410873 0.000000 0.000000 0.000000 -2.545416 -0.378405 11.628435 6.371699 -2.798239 -2.533800 1.452432 -9.777316 3.201113 -4.513425 3.550511 -24.811787 0.000000 0.000000 0.000000 -28.374403 -1.272860 -0.794096 -37.091931 -7.028775 -2.757985 -5.426919 -31.357374 2.949521 0.000000 0.000000 0.000000 23.596240 4.774636 -0.628817 44.408535 1.469648 -3.340576 -0.254379 40.087161 0.861191 0.000000 0.000000 0.000000 
1.480296 0.952701 0.386522 1.831170 13.738718 1.197961 5.157247 -0.697101 -9.758181 -1.421215 -0.349577 11.267181 -7.719236 -9.841150 7.905586 0.000000 0.000000 0.000000 -0.578785 1.412988 -18.557787 2.226302 -2.179926 42.409327 -2.433937 -4.428622 -6.815769 0.000000 0.000000 0.000000 -2.407291 -0.328549 10.617685 6.693322 -2.916237 -2.692204 0.320778 -9.723834 2.328485 -2.902249 2.741635 -23.211854 0.000000 0.000000 0.000000 -27.588944 -0.934836 -1.161168 -38.333332 -7.246992 -2.600460 -7.208420 -31.854864 3.478921 0.000000 0.000000 0.000000 25.331384 4.511469 -0.862634 43.664280 1.996536 -3.010824 -0.712186 39.119097 0.733386 0.000000 0.000000 0.000000 
1.499189 0.962252 0.390065 1.736221 14.438283 1.818859 4.039649 -0.610053 -7.791196 -1.409911 -0.143531 7.088434 -9.670863 -11.359010 10.454413 0.000000 0.000000 0.000000 1.357346 1.553566 -16.296998 1.159448 -1.110837 34.402802 -2.606771 -5.576040 -5.369960 0.000000 0.000000 0.000000 -2.178494 -0.323556 10.041306 6.328565 -2.651807 -3.314030 -0.436441 -9.591299 2.457722 -1.553568 2.098209 -22.413433 0.000000 0.000000 0.000000 -27.559524 -1.525203 -1.061971 -38.493555 -7.210908 -2.520047 -7.507229 -30.942817 3.396651 0.000000 0.000000 0.000000 26.192160 3.522734 -1.284802 44.157134 1.972567 -3.128008 0.364229 37.548872 1.138931 0.000000 0.000000 0.000000 
1.513715 0.964171 0.393500 1.361494 14.526867 2.074826 3.761242 -0.536488 -6.598364 -2.394691 0.049726 5.444938 -9.126920 -10.530737 10.178724 0.000000 0.000000 0.000000 2.723659 1.488491 -13.424446 0.838025 -0.458169 25.689397 -2.287489 -5.465146 -2.163649 0.000000 0.000000 0.000000 -1.995134 -0.295294 9.127669 5.736989 -2.443301 -2.770389 -0.414278 -9.406858 2.101459 -1.790315 2.236381 -22.061192 0.000000 0.000000 0.000000 -27.136090 -1.182763 -1.360653 -38.532057 -7.847668 -2.260788 -9.645935 -31.887560 4.097877 0.000000 0.000000 0.000000 27.379360 2.307050 -2.102078 43.405384 2.035992 -3.033145 2.385149 37.318528 1.798815 0.000000 0.000000 0.000000 
1.524951 0.963263 0.396390 1.225880 14.254432 2.448828 2.775560 -0.496886 -5.929375 -1.716729 -0.012322 4.912874 -9.152766 -11.336404 9.261842 0.000000 0.000000 0.000000 3.639304 1.259439 -10.301854 -0.333756 0.195907 18.365465 -2.210322 -5.576162 -0.743825 0.000000 0.000000 0.000000 -2.681212 -0.166546 7.457993 5.338329 -2.227483 -3.008108 -0.250679 -9.488821 2.994561 -1.506652 2.064603 -22.090492 0.000000 0.000000 0.000000 -27.412016 -1.350497 -1.183279 -38.332118 -7.724814 -2.372749 -10.440685 -31.590082 4.299484 0.000000 0.000000 0.000000 28.001418 3.278446 -1.572539 42.935624 1.906297 -3.088580 2.682269 35.049839 1.781904 0.000000 0.000000 0.000000 
1.533976 0.962357 0.398718 0.870906 13.367162 2.882730 2.172736 -0.474374 -5.594810 -1.859391 0.026178 4.449370 -7.729160 -10.196937 7.399041 0.000000 0.000000 0.000000 3.765640 0.995567 -7.950239 -0.780488 0.382940 12.886891 -1.536123 -4.133245 0.716049 0.000000 0.000000 0.000000 -2.879061 -0.102500 6.186381 4.960612 -2.033246 -3.195309 -0.201984 -8.835846 3.616850 -1.963524 2.350140 -22.563189 0.000000 0.000000 0.000000 -27.137550 -0.638063 -1.694360 -39.838895 -8.323971 -2.262942 -10.827408 -31.083217 4.330220 0.000000 0.000000 0.000000 28.532879 3.091221 -1.613818 42.529376 2.321905 -2.991940 3.635100 33.231509 1.985752 0.000000 0.000000 0.000000 
